<svg xmlns="http://www.w3.org/2000/svg" width="3024" height="4032" viewBox="0 0 3024 4032">
  <path d="M 1484.61 2426.45 L 1482.29 2426.56 L 1479.97 2426.70 L 1477.64 2426.85 L 1475.30 2427.01 L 1472.96 2427.20 L 1470.61 2427.41 L 1468.26 2427.63 L 1465.90 2427.88 L 1463.54 2428.14 L 1461.18 2428.42 L 1458.81 2428.73 L 1456.45 2429.05 L 1454.08 2429.39 L 1451.71 2429.75 L 1449.35 2430.14 L 1446.98 2430.54 L 1444.61 2430.96 L 1442.25 2431.40 L 1439.89 2431.86 L 1437.53 2432.34 L 1435.17 2432.85 L 1432.82 2433.37 L 1430.47 2433.91 L 1428.13 2434.48 L 1425.79 2435.06 L 1423.46 2435.67 L 1421.13 2436.30 L 1418.81 2436.95 L 1416.50 2437.62 L 1414.20 2438.31 L 1411.91 2439.02 L 1409.62 2439.75 L 1407.34 2440.51 L 1405.08 2441.29 L 1402.82 2442.09 L 1400.58 2442.91 L 1398.35 2443.75 L 1396.13 2444.62 L 1393.92 2445.50 L 1391.73 2446.41 L 1389.55 2447.34 L 1387.39 2448.30 L 1385.24 2449.28 L 1383.10 2450.28 L 1380.99 2451.30 L 1378.89 2452.34 L 1376.80 2453.41 L 1374.74 2454.50 L 1372.69 2455.62 L 1370.66 2456.75 L 1368.65 2457.92 L 1366.66 2459.10 L 1364.69 2460.31 L 1362.74 2461.54 L 1360.82 2462.79 L 1358.91 2464.07 L 1357.03 2465.38 L 1355.17 2466.70 L 1353.34 2468.06 L 1351.52 2469.43 L 1349.74 2470.83 L 1347.98 2472.26 L 1346.24 2473.70 L 1344.53 2475.18 L 1342.85 2476.67 L 1341.19 2478.19 L 1339.55 2479.74 L 1337.94 2481.30 L 1336.36 2482.89 L 1334.80 2484.50 L 1333.26 2486.13 L 1331.74 2487.79 L 1330.25 2489.46 L 1328.77 2491.16 L 1327.32 2492.87 L 1325.89 2494.61 L 1324.49 2496.36 L 1323.10 2498.13 L 1321.73 2499.92 L 1320.39 2501.73 L 1319.06 2503.56 L 1317.75 2505.40 L 1316.47 2507.26 L 1315.20 2509.14 L 1313.94 2511.03 L 1312.71 2512.94 L 1311.50 2514.87 L 1310.30 2516.81 L 1309.12 2518.77 L 1307.95 2520.74 L 1306.80 2522.72 L 1305.67 2524.72 L 1304.55 2526.73 L 1303.45 2528.75 L 1302.36 2530.78 L 1301.29 2532.83 L 1300.23 2534.89 L 1299.18 2536.96 L 1298.15 2539.04 L 1297.13 2541.13 L 1296.13 2543.24 L 1295.13 2545.35 L 1294.15 2547.47 L 1293.18 2549.60 L 1292.22 2551.74 L 1291.27 2553.88 L 1290.34 2556.04 L 1289.41 2558.20 L 1288.49 2560.37 L 1287.58 2562.55 L 1286.68 2564.73 L 1285.79 2566.92 L 1284.91 2569.11 L 1284.04 2571.31 L 1283.17 2573.51 L 1282.31 2575.72 L 1281.46 2577.93 L 1280.62 2580.15 L 1279.78 2582.37 L 1278.95 2584.59 L 1278.12 2586.81 L 1277.30 2589.04 L 1276.48 2591.27 L 1275.67 2593.50 L 1274.86 2595.73 L 1274.06 2597.96 L 1273.26 2600.19 L 1272.46 2602.43 L 1271.67 2604.66 L 1270.88 2606.89 L 1270.09 2609.13 L 1269.31 2611.36 L 1268.53 2613.59 L 1267.76 2615.83 L 1266.98 2618.06 L 1266.21 2620.30 L 1265.45 2622.53 L 1264.68 2624.77 L 1263.92 2627.00 L 1263.16 2629.23 L 1262.40 2631.47 L 1261.65 2633.70 L 1260.89 2635.93 L 1260.14 2638.16 L 1259.40 2640.39 L 1258.65 2642.62 L 1257.90 2644.85 L 1257.16 2647.07 L 1256.42 2649.30 L 1255.68 2651.52 L 1254.94 2653.75 L 1254.20 2655.97 L 1253.46 2658.19 L 1252.73 2660.41 L 1251.99 2662.63 L 1251.26 2664.84 L 1250.52 2667.06 L 1249.79 2669.27 L 1249.06 2671.48 L 1248.33 2673.69 L 1247.59 2675.89 L 1246.86 2678.10 L 1246.13 2680.30 L 1245.40 2682.50 L 1244.67 2684.69 L 1243.93 2686.89 L 1243.20 2689.08 L 1242.47 2691.27 L 1241.73 2693.45 L 1241.00 2695.64 L 1240.26 2697.82 L 1239.53 2699.99 L 1238.79 2702.17 L 1238.05 2704.34 L 1237.31 2706.51 L 1236.57 2708.67 L 1235.82 2710.83 L 1235.08 2712.99 L 1234.33 2715.14 L 1233.59 2717.30 L 1232.83 2719.44 L 1232.08 2721.58 L 1231.33 2723.72 L 1230.57 2725.86 L 1229.81 2727.99 L 1229.05 2730.12 L 1228.29 2732.24 L 1227.52 2734.36 L 1226.75 2736.47 L 1225.99 2738.58 L 1225.22 2740.69 L 1224.45 2742.80 L 1223.68 2744.90 L 1222.91 2747.01 L 1222.14 2749.11 L 1221.38 2751.21 L 1220.61 2753.31 L 1219.85 2755.41 L 1219.10 2757.52 L 1218.34 2759.62 L 1217.60 2761.72 L 1216.85 2763.83 L 1216.12 2765.94 L 1215.39 2768.05 L 1214.66 2770.17 L 1213.94 2772.29 L 1213.24 2774.41 L 1212.53 2776.53 L 1211.84 2778.67 L 1211.16 2780.80 L 1210.49 2782.94 L 1209.82 2785.09 L 1209.17 2787.25 L 1208.53 2789.41 L 1207.90 2791.58 L 1207.29 2793.75 L 1206.68 2795.94 L 1206.09 2798.13 L 1205.52 2800.34 L 1204.95 2802.55 L 1204.41 2804.77 L 1203.88 2807.00 L 1203.36 2809.23 L 1202.85 2811.48 L 1202.37 2813.73 L 1201.89 2815.99 L 1201.43 2818.26 L 1200.99 2820.54 L 1200.55 2822.82 L 1200.14 2825.10 L 1199.74 2827.39 L 1199.35 2829.69 L 1198.97 2831.99 L 1198.62 2834.29 L 1198.27 2836.60 L 1197.94 2838.92 L 1197.63 2841.23 L 1197.32 2843.55 L 1197.04 2845.87 L 1196.76 2848.20 L 1196.51 2850.52 L 1196.26 2852.85 L 1196.03 2855.18 L 1195.82 2857.51 L 1195.61 2859.83 L 1195.43 2862.16 L 1195.26 2864.49 L 1195.10 2866.82 L 1194.95 2869.15 L 1194.82 2871.47 L 1194.71 2873.79 L 1194.61 2876.12 L 1194.52 2878.44 L 1194.44 2880.76 L 1194.38 2883.07 L 1194.34 2885.39 L 1194.30 2887.70 L 1194.28 2890.02 L 1194.27 2892.33 L 1194.28 2894.64 L 1194.29 2896.95 L 1194.32 2899.26 L 1194.36 2901.57 L 1194.42 2903.88 L 1194.48 2906.18 L 1194.56 2908.49 L 1194.65 2910.79 L 1194.75 2913.10 L 1194.86 2915.40 L 1194.98 2917.70 L 1195.11 2920.01 L 1195.26 2922.31 L 1195.41 2924.61 L 1195.58 2926.91 L 1195.75 2929.21 L 1195.94 2931.51 L 1196.13 2933.81 L 1196.34 2936.11 L 1196.55 2938.41 L 1196.78 2940.71 L 1197.01 2943.01 L 1197.26 2945.31 L 1197.51 2947.61 L 1197.77 2949.91 L 1198.04 2952.21 L 1198.31 2954.51 L 1198.60 2956.81 L 1198.89 2959.11 L 1199.20 2961.41 L 1199.51 2963.71 L 1199.82 2966.01 L 1200.15 2968.32 L 1200.48 2970.62 L 1200.82 2972.92 L 1201.17 2975.23 L 1201.52 2977.53 L 1201.88 2979.84 L 1202.25 2982.15 L 1202.62 2984.45 L 1203.00 2986.76 L 1203.39 2989.07 L 1203.78 2991.38 L 1204.17 2993.70 L 1204.58 2996.01 L 1204.99 2998.32 L 1205.40 3000.64 L 1205.82 3002.96 L 1206.24 3005.27 L 1206.67 3007.59 L 1207.10 3009.92 L 1207.54 3012.24 L 1207.98 3014.56 L 1208.43 3016.89 L 1208.88 3019.22 L 1209.33 3021.55 L 1209.79 3023.88 L 1210.25 3026.21 L 1210.72 3028.54 L 1211.19 3030.87 L 1211.67 3033.21 L 1212.16 3035.54 L 1212.65 3037.87 L 1213.15 3040.20 L 1213.66 3042.53 L 1214.17 3044.86 L 1214.69 3047.18 L 1215.22 3049.51 L 1215.76 3051.83 L 1216.31 3054.15 L 1216.87 3056.46 L 1217.43 3058.78 L 1218.01 3061.09 L 1218.60 3063.39 L 1219.19 3065.69 L 1219.80 3067.99 L 1220.42 3070.28 L 1221.05 3072.57 L 1221.69 3074.85 L 1222.35 3077.13 L 1223.01 3079.40 L 1223.69 3081.66 L 1224.38 3083.92 L 1225.09 3086.17 L 1225.81 3088.42 L 1226.54 3090.65 L 1227.29 3092.88 L 1228.06 3095.10 L 1228.83 3097.32 L 1229.63 3099.52 L 1230.44 3101.72 L 1231.26 3103.90 L 1232.10 3106.08 L 1232.96 3108.25 L 1233.84 3110.41 L 1234.73 3112.55 L 1235.64 3114.69 L 1236.57 3116.82 L 1237.52 3118.93 L 1238.49 3121.03 L 1239.47 3123.12 L 1240.48 3125.20 L 1241.50 3127.27 L 1242.54 3129.33 L 1243.61 3131.37 L 1244.69 3133.40 L 1245.80 3135.41 L 1246.93 3137.41 L 1248.08 3139.40 L 1249.25 3141.37 L 1250.44 3143.33 L 1251.66 3145.27 L 1252.90 3147.20 L 1254.16 3149.11 L 1255.45 3151.01 L 1256.76 3152.89 L 1258.10 3154.75 L 1259.45 3156.60 L 1260.83 3158.43 L 1262.24 3160.25 L 1263.66 3162.06 L 1265.10 3163.85 L 1266.56 3165.63 L 1268.04 3167.40 L 1269.54 3169.16 L 1271.05 3170.90 L 1272.57 3172.64 L 1274.11 3174.37 L 1275.67 3176.09 L 1277.23 3177.80 L 1278.81 3179.51 L 1280.40 3181.20 L 1282.00 3182.90 L 1283.60 3184.58 L 1285.22 3186.27 L 1286.84 3187.95 L 1288.46 3189.62 L 1290.09 3191.30 L 1291.73 3192.97 L 1293.37 3194.64 L 1295.01 3196.31 L 1296.65 3197.98 L 1298.29 3199.66 L 1299.93 3201.33 L 1301.57 3203.00 L 1303.21 3204.68 L 1304.85 3206.37 L 1306.48 3208.05 L 1308.10 3209.74 L 1309.72 3211.44 L 1311.34 3213.14 L 1312.94 3214.85 L 1314.54 3216.56 L 1316.14 3218.27 L 1317.73 3219.99 L 1319.31 3221.71 L 1320.88 3223.44 L 1322.45 3225.17 L 1324.01 3226.90 L 1325.57 3228.63 L 1327.12 3230.36 L 1328.66 3232.10 L 1330.19 3233.83 L 1331.72 3235.57 L 1333.24 3237.30 L 1334.75 3239.04 L 1336.26 3240.77 L 1337.78 3242.48 L 1339.29 3244.19 L 1340.81 3245.88 L 1342.34 3247.55 L 1343.88 3249.20 L 1345.43 3250.81 L 1347.00 3252.40 L 1348.58 3253.96 L 1350.19 3255.48 L 1351.82 3256.96 L 1353.47 3258.39 L 1355.16 3259.78 L 1356.87 3261.12 L 1358.62 3262.41 L 1360.39 3263.65 L 1362.19 3264.85 L 1364.02 3266.00 L 1365.88 3267.11 L 1367.76 3268.18 L 1369.67 3269.21 L 1371.60 3270.20 L 1373.56 3271.16 L 1375.54 3272.08 L 1377.55 3272.97 L 1379.58 3273.82 L 1381.62 3274.64 L 1383.69 3275.44 L 1385.78 3276.20 L 1387.89 3276.94 L 1390.01 3277.65 L 1392.16 3278.34 L 1394.32 3279.01 L 1396.50 3279.66 L 1398.69 3280.28 L 1400.90 3280.89 L 1403.12 3281.49 L 1405.36 3282.06 L 1407.61 3282.63 L 1409.87 3283.18 L 1412.14 3283.72 L 1414.42 3284.25 L 1416.72 3284.78 L 1419.02 3285.30 L 1421.33 3285.81 L 1423.65 3286.32 L 1425.98 3286.82 L 1428.31 3287.32 L 1430.65 3287.81 L 1433.00 3288.29 L 1435.35 3288.77 L 1437.71 3289.24 L 1440.07 3289.69 L 1442.44 3290.14 L 1444.81 3290.58 L 1447.19 3291.00 L 1449.57 3291.41 L 1451.95 3291.80 L 1454.33 3292.19 L 1456.72 3292.55 L 1459.11 3292.90 L 1461.50 3293.23 L 1463.89 3293.55 L 1466.28 3293.84 L 1468.67 3294.12 L 1471.06 3294.38 L 1473.45 3294.61 L 1475.83 3294.82 L 1478.22 3295.01 L 1480.60 3295.18 L 1482.98 3295.32 L 1485.36 3295.43 L 1487.73 3295.52 L 1490.10 3295.59 L 1492.47 3295.62 L 1494.83 3295.63 L 1497.18 3295.61 L 1499.53 3295.55 L 1501.88 3295.47 L 1504.22 3295.37 L 1506.55 3295.23 L 1508.88 3295.07 L 1511.21 3294.88 L 1513.52 3294.66 L 1515.83 3294.41 L 1518.14 3294.14 L 1520.44 3293.84 L 1522.73 3293.52 L 1525.02 3293.17 L 1527.30 3292.79 L 1529.58 3292.39 L 1531.85 3291.96 L 1534.11 3291.51 L 1536.36 3291.03 L 1538.61 3290.53 L 1540.86 3290.01 L 1543.09 3289.46 L 1545.32 3288.89 L 1547.54 3288.29 L 1549.75 3287.67 L 1551.96 3287.03 L 1554.16 3286.36 L 1556.35 3285.67 L 1558.54 3284.96 L 1560.71 3284.23 L 1562.88 3283.47 L 1565.04 3282.70 L 1567.20 3281.90 L 1569.34 3281.08 L 1571.48 3280.24 L 1573.61 3279.38 L 1575.73 3278.50 L 1577.84 3277.60 L 1579.95 3276.68 L 1582.04 3275.74 L 1584.13 3274.78 L 1586.21 3273.80 L 1588.28 3272.80 L 1590.34 3271.79 L 1592.39 3270.75 L 1594.44 3269.70 L 1596.47 3268.63 L 1598.49 3267.54 L 1600.51 3266.43 L 1602.52 3265.31 L 1604.51 3264.17 L 1606.50 3263.02 L 1608.48 3261.84 L 1610.44 3260.65 L 1612.40 3259.45 L 1614.35 3258.23 L 1616.29 3256.99 L 1618.21 3255.74 L 1620.13 3254.47 L 1622.04 3253.19 L 1623.94 3251.90 L 1625.82 3250.59 L 1627.70 3249.26 L 1629.56 3247.93 L 1631.42 3246.57 L 1633.26 3245.21 L 1635.09 3243.83 L 1636.92 3242.44 L 1638.73 3241.03 L 1640.53 3239.62 L 1642.32 3238.18 L 1644.10 3236.74 L 1645.87 3235.28 L 1647.63 3233.81 L 1649.38 3232.33 L 1651.11 3230.84 L 1652.84 3229.33 L 1654.56 3227.81 L 1656.26 3226.28 L 1657.96 3224.73 L 1659.64 3223.18 L 1661.31 3221.61 L 1662.98 3220.03 L 1664.63 3218.44 L 1666.27 3216.83 L 1667.90 3215.22 L 1669.52 3213.59 L 1671.13 3211.96 L 1672.73 3210.31 L 1674.32 3208.65 L 1675.90 3206.98 L 1677.47 3205.30 L 1679.02 3203.61 L 1680.57 3201.91 L 1682.10 3200.19 L 1683.63 3198.47 L 1685.14 3196.74 L 1686.64 3194.99 L 1688.14 3193.24 L 1689.62 3191.48 L 1691.09 3189.71 L 1692.55 3187.92 L 1694.00 3186.13 L 1695.44 3184.33 L 1696.87 3182.52 L 1698.29 3180.70 L 1699.69 3178.87 L 1701.09 3177.03 L 1702.47 3175.18 L 1703.85 3173.33 L 1705.21 3171.46 L 1706.57 3169.59 L 1707.91 3167.70 L 1709.24 3165.81 L 1710.56 3163.92 L 1711.88 3162.01 L 1713.18 3160.09 L 1714.46 3158.17 L 1715.74 3156.24 L 1717.01 3154.30 L 1718.27 3152.35 L 1719.52 3150.40 L 1720.75 3148.44 L 1721.98 3146.47 L 1723.19 3144.49 L 1724.40 3142.51 L 1725.59 3140.52 L 1726.77 3138.52 L 1727.94 3136.52 L 1729.10 3134.51 L 1730.25 3132.49 L 1731.39 3130.47 L 1732.52 3128.44 L 1733.64 3126.40 L 1734.75 3124.36 L 1735.84 3122.31 L 1736.93 3120.25 L 1738.00 3118.19 L 1739.06 3116.12 L 1740.12 3114.04 L 1741.16 3111.96 L 1742.19 3109.87 L 1743.21 3107.78 L 1744.22 3105.68 L 1745.21 3103.58 L 1746.20 3101.47 L 1747.18 3099.35 L 1748.14 3097.23 L 1749.10 3095.10 L 1750.04 3092.97 L 1750.97 3090.83 L 1751.89 3088.69 L 1752.80 3086.54 L 1753.70 3084.39 L 1754.58 3082.23 L 1755.46 3080.06 L 1756.33 3077.89 L 1757.18 3075.72 L 1758.02 3073.54 L 1758.85 3071.36 L 1759.67 3069.17 L 1760.48 3066.98 L 1761.28 3064.79 L 1762.07 3062.58 L 1762.84 3060.38 L 1763.61 3058.17 L 1764.36 3055.96 L 1765.10 3053.74 L 1765.83 3051.52 L 1766.55 3049.29 L 1767.26 3047.06 L 1767.95 3044.83 L 1768.64 3042.59 L 1769.31 3040.35 L 1769.97 3038.10 L 1770.62 3035.86 L 1771.26 3033.60 L 1771.89 3031.35 L 1772.51 3029.09 L 1773.11 3026.83 L 1773.70 3024.56 L 1774.29 3022.30 L 1774.86 3020.03 L 1775.42 3017.75 L 1775.96 3015.47 L 1776.50 3013.19 L 1777.02 3010.91 L 1777.54 3008.63 L 1778.04 3006.34 L 1778.53 3004.05 L 1779.01 3001.76 L 1779.47 2999.46 L 1779.93 2997.16 L 1780.37 2994.86 L 1780.80 2992.56 L 1781.22 2990.26 L 1781.63 2987.95 L 1782.02 2985.64 L 1782.41 2983.33 L 1782.78 2981.02 L 1783.14 2978.70 L 1783.49 2976.39 L 1783.83 2974.07 L 1784.16 2971.75 L 1784.47 2969.43 L 1784.77 2967.11 L 1785.06 2964.79 L 1785.34 2962.46 L 1785.61 2960.14 L 1785.86 2957.81 L 1786.11 2955.48 L 1786.34 2953.15 L 1786.56 2950.82 L 1786.76 2948.49 L 1786.96 2946.16 L 1787.14 2943.83 L 1787.31 2941.50 L 1787.47 2939.16 L 1787.62 2936.83 L 1787.76 2934.50 L 1787.88 2932.16 L 1787.99 2929.83 L 1788.09 2927.49 L 1788.18 2925.16 L 1788.25 2922.82 L 1788.32 2920.49 L 1788.37 2918.15 L 1788.41 2915.82 L 1788.43 2913.48 L 1788.45 2911.15 L 1788.45 2908.81 L 1788.44 2906.48 L 1788.42 2904.15 L 1788.38 2901.81 L 1788.34 2899.48 L 1788.28 2897.15 L 1788.21 2894.82 L 1788.13 2892.49 L 1788.03 2890.16 L 1787.92 2887.84 L 1787.80 2885.51 L 1787.67 2883.18 L 1787.53 2880.86 L 1787.37 2878.54 L 1787.20 2876.22 L 1787.02 2873.90 L 1786.83 2871.58 L 1786.62 2869.26 L 1786.40 2866.94 L 1786.17 2864.63 L 1785.93 2862.32 L 1785.67 2860.01 L 1785.40 2857.70 L 1785.12 2855.39 L 1784.83 2853.09 L 1784.53 2850.79 L 1784.21 2848.48 L 1783.89 2846.19 L 1783.55 2843.89 L 1783.20 2841.59 L 1782.85 2839.30 L 1782.48 2837.00 L 1782.10 2834.71 L 1781.71 2832.42 L 1781.31 2830.13 L 1780.90 2827.84 L 1780.48 2825.56 L 1780.05 2823.27 L 1779.61 2820.99 L 1779.17 2818.71 L 1778.71 2816.43 L 1778.25 2814.15 L 1777.78 2811.87 L 1777.29 2809.59 L 1776.80 2807.31 L 1776.31 2805.04 L 1775.80 2802.77 L 1775.29 2800.49 L 1774.77 2798.22 L 1774.24 2795.95 L 1773.71 2793.68 L 1773.17 2791.42 L 1772.62 2789.15 L 1772.06 2786.88 L 1771.50 2784.62 L 1770.93 2782.35 L 1770.36 2780.09 L 1769.78 2777.83 L 1769.19 2775.57 L 1768.60 2773.31 L 1768.01 2771.05 L 1767.41 2768.79 L 1766.80 2766.53 L 1766.19 2764.27 L 1765.57 2762.01 L 1764.95 2759.76 L 1764.33 2757.50 L 1763.70 2755.25 L 1763.07 2752.99 L 1762.43 2750.74 L 1761.79 2748.49 L 1761.15 2746.23 L 1760.50 2743.98 L 1759.86 2741.73 L 1759.20 2739.48 L 1758.55 2737.23 L 1757.89 2734.98 L 1757.23 2732.73 L 1756.57 2730.48 L 1755.91 2728.23 L 1755.24 2725.98 L 1754.58 2723.73 L 1753.91 2721.48 L 1753.24 2719.23 L 1752.57 2716.99 L 1751.90 2714.74 L 1751.22 2712.49 L 1750.55 2710.24 L 1749.87 2708.00 L 1749.19 2705.75 L 1748.51 2703.51 L 1747.82 2701.27 L 1747.14 2699.02 L 1746.45 2696.78 L 1745.75 2694.54 L 1745.06 2692.30 L 1744.36 2690.06 L 1743.66 2687.83 L 1742.95 2685.59 L 1742.24 2683.36 L 1741.53 2681.12 L 1740.81 2678.89 L 1740.09 2676.66 L 1739.37 2674.44 L 1738.64 2672.21 L 1737.91 2669.99 L 1737.17 2667.77 L 1736.43 2665.55 L 1735.68 2663.33 L 1734.93 2661.12 L 1734.17 2658.90 L 1733.40 2656.69 L 1732.64 2654.49 L 1731.86 2652.28 L 1731.08 2650.08 L 1730.30 2647.88 L 1729.50 2645.68 L 1728.71 2643.49 L 1727.90 2641.30 L 1727.09 2639.11 L 1726.27 2636.92 L 1725.45 2634.74 L 1724.62 2632.56 L 1723.78 2630.39 L 1722.94 2628.22 L 1722.08 2626.05 L 1721.22 2623.89 L 1720.36 2621.73 L 1719.48 2619.57 L 1718.60 2617.41 L 1717.71 2615.27 L 1716.81 2613.12 L 1715.90 2610.98 L 1714.98 2608.84 L 1714.06 2606.71 L 1713.12 2604.58 L 1712.18 2602.46 L 1711.23 2600.34 L 1710.27 2598.22 L 1709.30 2596.11 L 1708.32 2594.00 L 1707.33 2591.90 L 1706.33 2589.81 L 1705.32 2587.71 L 1704.30 2585.63 L 1703.27 2583.55 L 1702.23 2581.47 L 1701.18 2579.40 L 1700.12 2577.33 L 1699.05 2575.27 L 1697.96 2573.22 L 1696.87 2571.17 L 1695.77 2569.13 L 1694.65 2567.09 L 1693.53 2565.07 L 1692.39 2563.04 L 1691.24 2561.03 L 1690.08 2559.02 L 1688.91 2557.02 L 1687.73 2555.02 L 1686.54 2553.03 L 1685.33 2551.05 L 1684.12 2549.08 L 1682.89 2547.11 L 1681.65 2545.16 L 1680.40 2543.21 L 1679.13 2541.26 L 1677.86 2539.33 L 1676.57 2537.41 L 1675.27 2535.49 L 1673.95 2533.58 L 1672.63 2531.68 L 1671.29 2529.79 L 1669.94 2527.91 L 1668.57 2526.04 L 1667.20 2524.18 L 1665.81 2522.33 L 1664.41 2520.48 L 1662.99 2518.65 L 1661.56 2516.83 L 1660.12 2515.01 L 1658.67 2513.21 L 1657.20 2511.42 L 1655.72 2509.64 L 1654.22 2507.87 L 1652.71 2506.11 L 1651.19 2504.36 L 1649.65 2502.62 L 1648.10 2500.89 L 1646.54 2499.18 L 1644.96 2497.47 L 1643.37 2495.78 L 1641.76 2494.10 L 1640.14 2492.43 L 1638.50 2490.78 L 1636.85 2489.13 L 1635.18 2487.50 L 1633.51 2485.88 L 1631.81 2484.28 L 1630.10 2482.68 L 1628.38 2481.10 L 1626.64 2479.54 L 1624.88 2477.98 L 1623.11 2476.44 L 1621.33 2474.92 L 1619.53 2473.40 L 1617.71 2471.90 L 1615.88 2470.42 L 1614.03 2468.95 L 1612.17 2467.49 L 1610.30 2466.05 L 1608.41 2464.63 L 1606.50 2463.23 L 1604.58 2461.84 L 1602.65 2460.47 L 1600.71 2459.12 L 1598.75 2457.79 L 1596.79 2456.48 L 1594.81 2455.19 L 1592.82 2453.92 L 1590.81 2452.67 L 1588.80 2451.45 L 1586.78 2450.25 L 1584.75 2449.07 L 1582.71 2447.92 L 1580.66 2446.79 L 1578.60 2445.69 L 1576.53 2444.62 L 1574.45 2443.57 L 1572.37 2442.56 L 1570.28 2441.57 L 1568.18 2440.61 L 1566.07 2439.67 L 1563.96 2438.77 L 1561.85 2437.90 L 1559.73 2437.07 L 1557.60 2436.26 L 1555.47 2435.49 L 1553.33 2434.75 L 1551.19 2434.04 L 1549.05 2433.37 L 1546.90 2432.73 L 1544.74 2432.13 L 1542.59 2431.56 L 1540.43 2431.02 L 1538.26 2430.51 L 1536.09 2430.04 L 1533.92 2429.59 L 1531.74 2429.17 L 1529.55 2428.79 L 1527.36 2428.43 L 1525.17 2428.10 L 1522.96 2427.80 L 1520.76 2427.53 L 1518.55 2427.28 L 1516.33 2427.06 L 1514.11 2426.87 L 1511.88 2426.70 L 1509.64 2426.55 L 1507.40 2426.43 L 1505.15 2426.34 L 1502.90 2426.26 L 1500.63 2426.21 L 1498.37 2426.18 L 1496.09 2426.18 L 1493.81 2426.19 L 1491.52 2426.23 L 1489.23 2426.28 L 1486.92 2426.36 Z" fill="none" stroke="#00ff66" stroke-width="3" stroke-linejoin="round"/>
</svg>
