<svg xmlns="http://www.w3.org/2000/svg" width="1280" height="720" viewBox="0 0 1280 720">
  <path d="M 685.52 330.64 L 684.87 330.66 L 684.22 330.68 L 683.56 330.70 L 682.91 330.73 L 682.26 330.76 L 681.61 330.79 L 680.97 330.83 L 680.32 330.87 L 679.67 330.92 L 679.03 330.97 L 678.39 331.03 L 677.75 331.09 L 677.11 331.16 L 676.47 331.22 L 675.83 331.30 L 675.20 331.37 L 674.56 331.46 L 673.93 331.54 L 673.30 331.63 L 672.67 331.73 L 672.04 331.82 L 671.41 331.93 L 670.79 332.03 L 670.16 332.15 L 669.54 332.26 L 668.92 332.38 L 668.30 332.50 L 667.68 332.63 L 667.06 332.77 L 666.45 332.90 L 665.83 333.04 L 665.22 333.19 L 664.61 333.34 L 664.00 333.49 L 663.39 333.65 L 662.78 333.82 L 662.18 333.98 L 661.57 334.16 L 660.97 334.33 L 660.37 334.51 L 659.77 334.70 L 659.17 334.89 L 658.58 335.08 L 657.98 335.28 L 657.39 335.48 L 656.80 335.69 L 656.21 335.90 L 655.62 336.12 L 655.03 336.34 L 654.45 336.56 L 653.87 336.79 L 653.29 337.02 L 652.71 337.26 L 652.13 337.51 L 651.55 337.75 L 650.98 338.00 L 650.40 338.26 L 649.83 338.52 L 649.26 338.79 L 648.70 339.06 L 648.13 339.33 L 647.57 339.61 L 647.00 339.89 L 646.44 340.18 L 645.88 340.47 L 645.33 340.77 L 644.77 341.07 L 644.22 341.38 L 643.67 341.69 L 643.12 342.00 L 642.58 342.32 L 642.03 342.65 L 641.49 342.97 L 640.95 343.31 L 640.42 343.64 L 639.89 343.98 L 639.36 344.32 L 638.83 344.67 L 638.31 345.02 L 637.79 345.38 L 637.28 345.74 L 636.77 346.10 L 636.26 346.47 L 635.75 346.84 L 635.25 347.22 L 634.76 347.60 L 634.26 347.98 L 633.77 348.36 L 633.29 348.75 L 632.81 349.15 L 632.33 349.54 L 631.86 349.94 L 631.40 350.35 L 630.93 350.75 L 630.48 351.17 L 630.03 351.58 L 629.58 352.00 L 629.14 352.42 L 628.70 352.84 L 628.27 353.27 L 627.84 353.70 L 627.42 354.13 L 627.01 354.57 L 626.60 355.00 L 626.20 355.45 L 625.80 355.89 L 625.41 356.34 L 625.03 356.79 L 624.65 357.24 L 624.27 357.70 L 623.91 358.16 L 623.55 358.62 L 623.20 359.09 L 622.85 359.55 L 622.51 360.02 L 622.18 360.49 L 621.85 360.97 L 621.53 361.45 L 621.22 361.93 L 620.92 362.41 L 620.62 362.89 L 620.33 363.38 L 620.05 363.87 L 619.78 364.36 L 619.51 364.86 L 619.26 365.35 L 619.01 365.85 L 618.77 366.35 L 618.53 366.85 L 618.30 367.36 L 618.09 367.86 L 617.87 368.37 L 617.67 368.88 L 617.47 369.39 L 617.28 369.91 L 617.10 370.42 L 616.93 370.94 L 616.76 371.46 L 616.60 371.99 L 616.45 372.51 L 616.30 373.04 L 616.16 373.57 L 616.02 374.10 L 615.90 374.63 L 615.78 375.16 L 615.66 375.70 L 615.55 376.23 L 615.45 376.77 L 615.36 377.31 L 615.27 377.86 L 615.18 378.40 L 615.11 378.95 L 615.03 379.49 L 614.97 380.04 L 614.91 380.59 L 614.85 381.15 L 614.80 381.70 L 614.76 382.26 L 614.72 382.81 L 614.69 383.37 L 614.66 383.93 L 614.64 384.50 L 614.62 385.06 L 614.61 385.63 L 614.60 386.19 L 614.60 386.76 L 614.60 387.33 L 614.60 387.90 L 614.62 388.47 L 614.63 389.05 L 614.65 389.62 L 614.67 390.20 L 614.70 390.78 L 614.73 391.36 L 614.77 391.94 L 614.81 392.52 L 614.86 393.10 L 614.90 393.69 L 614.96 394.27 L 615.01 394.86 L 615.07 395.45 L 615.13 396.03 L 615.20 396.62 L 615.27 397.22 L 615.34 397.81 L 615.42 398.40 L 615.49 399.00 L 615.58 399.59 L 615.66 400.19 L 615.75 400.79 L 615.84 401.39 L 615.93 401.99 L 616.03 402.59 L 616.13 403.19 L 616.23 403.79 L 616.33 404.40 L 616.43 405.00 L 616.54 405.61 L 616.65 406.21 L 616.76 406.82 L 616.88 407.43 L 616.99 408.04 L 617.11 408.65 L 617.23 409.26 L 617.35 409.87 L 617.47 410.48 L 617.60 411.09 L 617.72 411.71 L 617.85 412.32 L 617.97 412.94 L 618.10 413.55 L 618.23 414.17 L 618.36 414.79 L 618.50 415.40 L 618.63 416.02 L 618.76 416.64 L 618.90 417.26 L 619.03 417.88 L 619.17 418.50 L 619.30 419.12 L 619.44 419.74 L 619.57 420.37 L 619.71 420.99 L 619.85 421.61 L 619.98 422.23 L 620.12 422.86 L 620.26 423.48 L 620.39 424.11 L 620.53 424.73 L 620.66 425.36 L 620.80 425.98 L 620.93 426.61 L 621.07 427.23 L 621.20 427.86 L 621.33 428.49 L 621.46 429.11 L 621.59 429.74 L 621.72 430.37 L 621.85 430.99 L 621.98 431.62 L 622.10 432.25 L 622.23 432.88 L 622.35 433.50 L 622.47 434.13 L 622.59 434.76 L 622.71 435.39 L 622.83 436.02 L 622.94 436.65 L 623.05 437.27 L 623.16 437.90 L 623.27 438.53 L 623.38 439.16 L 623.48 439.79 L 623.59 440.41 L 623.69 441.04 L 623.78 441.67 L 623.88 442.30 L 623.97 442.92 L 624.06 443.55 L 624.15 444.18 L 624.24 444.81 L 624.33 445.43 L 624.41 446.06 L 624.50 446.69 L 624.58 447.31 L 624.66 447.94 L 624.73 448.57 L 624.81 449.19 L 624.89 449.82 L 624.96 450.44 L 625.03 451.07 L 625.10 451.70 L 625.17 452.32 L 625.24 452.95 L 625.31 453.57 L 625.38 454.19 L 625.44 454.82 L 625.51 455.44 L 625.57 456.07 L 625.63 456.69 L 625.69 457.31 L 625.76 457.94 L 625.82 458.56 L 625.88 459.18 L 625.94 459.80 L 626.00 460.43 L 626.05 461.05 L 626.11 461.67 L 626.17 462.29 L 626.23 462.91 L 626.28 463.53 L 626.34 464.15 L 626.40 464.77 L 626.45 465.39 L 626.51 466.01 L 626.57 466.63 L 626.62 467.25 L 626.68 467.87 L 626.74 468.48 L 626.80 469.10 L 626.85 469.72 L 626.91 470.33 L 626.97 470.95 L 627.03 471.56 L 627.09 472.18 L 627.15 472.79 L 627.21 473.41 L 627.27 474.02 L 627.33 474.64 L 627.39 475.25 L 627.46 475.86 L 627.52 476.47 L 627.59 477.09 L 627.65 477.70 L 627.72 478.31 L 627.79 478.92 L 627.86 479.53 L 627.93 480.14 L 628.00 480.75 L 628.07 481.35 L 628.15 481.96 L 628.22 482.57 L 628.30 483.18 L 628.38 483.78 L 628.46 484.39 L 628.54 484.99 L 628.62 485.60 L 628.71 486.20 L 628.80 486.80 L 628.89 487.41 L 628.98 488.01 L 629.07 488.61 L 629.16 489.21 L 629.26 489.81 L 629.36 490.41 L 629.46 491.01 L 629.56 491.61 L 629.67 492.21 L 629.78 492.80 L 629.89 493.40 L 630.00 494.00 L 630.11 494.59 L 630.23 495.19 L 630.35 495.78 L 630.47 496.37 L 630.60 496.97 L 630.73 497.56 L 630.86 498.15 L 630.99 498.74 L 631.13 499.33 L 631.27 499.92 L 631.41 500.51 L 631.56 501.09 L 631.71 501.68 L 631.86 502.27 L 632.01 502.85 L 632.17 503.44 L 632.33 504.02 L 632.50 504.60 L 632.67 505.19 L 632.84 505.77 L 633.01 506.35 L 633.19 506.93 L 633.38 507.51 L 633.56 508.09 L 633.75 508.66 L 633.95 509.24 L 634.15 509.81 L 634.35 510.39 L 634.55 510.96 L 634.76 511.54 L 634.98 512.11 L 635.19 512.68 L 635.42 513.25 L 635.64 513.82 L 635.87 514.39 L 636.11 514.96 L 636.35 515.53 L 636.59 516.09 L 636.84 516.66 L 637.09 517.22 L 637.35 517.78 L 637.61 518.35 L 637.88 518.91 L 638.15 519.47 L 638.42 520.02 L 638.70 520.58 L 638.98 521.14 L 639.27 521.69 L 639.56 522.24 L 639.85 522.79 L 640.15 523.34 L 640.45 523.89 L 640.76 524.43 L 641.07 524.98 L 641.39 525.52 L 641.70 526.06 L 642.03 526.59 L 642.35 527.13 L 642.68 527.66 L 643.02 528.19 L 643.35 528.72 L 643.70 529.24 L 644.04 529.77 L 644.39 530.29 L 644.74 530.80 L 645.10 531.32 L 645.46 531.83 L 645.82 532.34 L 646.19 532.84 L 646.55 533.35 L 646.93 533.85 L 647.30 534.34 L 647.68 534.84 L 648.07 535.33 L 648.45 535.82 L 648.84 536.30 L 649.24 536.78 L 649.63 537.26 L 650.03 537.73 L 650.44 538.20 L 650.84 538.67 L 651.25 539.13 L 651.66 539.59 L 652.08 540.04 L 652.50 540.49 L 652.92 540.94 L 653.34 541.38 L 653.77 541.82 L 654.20 542.25 L 654.63 542.68 L 655.06 543.11 L 655.50 543.53 L 655.94 543.95 L 656.39 544.36 L 656.83 544.76 L 657.28 545.17 L 657.73 545.56 L 658.19 545.96 L 658.64 546.35 L 659.10 546.73 L 659.56 547.11 L 660.03 547.48 L 660.50 547.85 L 660.96 548.21 L 661.44 548.57 L 661.91 548.92 L 662.39 549.27 L 662.86 549.61 L 663.34 549.95 L 663.83 550.28 L 664.31 550.60 L 664.80 550.92 L 665.29 551.23 L 665.78 551.54 L 666.27 551.84 L 666.77 552.14 L 667.27 552.43 L 667.77 552.71 L 668.27 552.99 L 668.77 553.26 L 669.28 553.52 L 669.78 553.78 L 670.29 554.03 L 670.80 554.28 L 671.32 554.52 L 671.83 554.75 L 672.35 554.98 L 672.86 555.20 L 673.38 555.41 L 673.90 555.61 L 674.43 555.81 L 674.95 556.00 L 675.48 556.19 L 676.00 556.36 L 676.53 556.53 L 677.06 556.69 L 677.59 556.85 L 678.13 557.00 L 678.66 557.14 L 679.19 557.27 L 679.73 557.39 L 680.27 557.51 L 680.81 557.62 L 681.35 557.72 L 681.89 557.82 L 682.43 557.90 L 682.98 557.98 L 683.52 558.05 L 684.07 558.11 L 684.61 558.17 L 685.16 558.21 L 685.71 558.25 L 686.26 558.28 L 686.81 558.30 L 687.36 558.31 L 687.91 558.31 L 688.46 558.31 L 689.02 558.29 L 689.57 558.27 L 690.13 558.24 L 690.68 558.20 L 691.24 558.15 L 691.79 558.09 L 692.35 558.02 L 692.91 557.94 L 693.47 557.86 L 694.02 557.76 L 694.58 557.66 L 695.14 557.55 L 695.70 557.43 L 696.25 557.30 L 696.81 557.17 L 697.37 557.02 L 697.92 556.87 L 698.48 556.71 L 699.03 556.54 L 699.59 556.36 L 700.14 556.17 L 700.69 555.98 L 701.24 555.78 L 701.79 555.57 L 702.33 555.36 L 702.88 555.13 L 703.42 554.90 L 703.96 554.66 L 704.50 554.42 L 705.04 554.16 L 705.58 553.90 L 706.11 553.63 L 706.64 553.36 L 707.17 553.08 L 707.69 552.79 L 708.22 552.49 L 708.74 552.19 L 709.25 551.88 L 709.77 551.56 L 710.28 551.24 L 710.79 550.91 L 711.29 550.57 L 711.79 550.23 L 712.29 549.88 L 712.79 549.53 L 713.28 549.17 L 713.76 548.80 L 714.24 548.43 L 714.72 548.05 L 715.20 547.66 L 715.67 547.27 L 716.13 546.87 L 716.59 546.47 L 717.05 546.06 L 717.50 545.65 L 717.95 545.23 L 718.39 544.81 L 718.82 544.38 L 719.25 543.94 L 719.68 543.50 L 720.10 543.05 L 720.52 542.60 L 720.93 542.15 L 721.33 541.69 L 721.73 541.22 L 722.12 540.75 L 722.50 540.27 L 722.88 539.79 L 723.26 539.31 L 723.63 538.82 L 723.99 538.33 L 724.34 537.83 L 724.69 537.33 L 725.04 536.82 L 725.38 536.31 L 725.71 535.80 L 726.04 535.28 L 726.37 534.76 L 726.69 534.23 L 727.00 533.70 L 727.31 533.17 L 727.61 532.63 L 727.91 532.09 L 728.21 531.55 L 728.50 531.00 L 728.79 530.45 L 729.07 529.90 L 729.35 529.35 L 729.62 528.79 L 729.89 528.23 L 730.15 527.67 L 730.42 527.10 L 730.68 526.53 L 730.93 525.96 L 731.18 525.39 L 731.43 524.81 L 731.67 524.23 L 731.91 523.65 L 732.15 523.07 L 732.39 522.49 L 732.62 521.90 L 732.85 521.31 L 733.07 520.72 L 733.30 520.13 L 733.52 519.54 L 733.74 518.95 L 733.95 518.35 L 734.16 517.76 L 734.38 517.16 L 734.59 516.56 L 734.79 515.96 L 735.00 515.36 L 735.20 514.76 L 735.40 514.16 L 735.60 513.56 L 735.80 512.96 L 736.00 512.35 L 736.19 511.75 L 736.39 511.15 L 736.58 510.54 L 736.77 509.94 L 736.96 509.33 L 737.15 508.73 L 737.34 508.13 L 737.53 507.52 L 737.72 506.92 L 737.91 506.32 L 738.09 505.71 L 738.28 505.11 L 738.47 504.51 L 738.65 503.91 L 738.84 503.31 L 739.02 502.71 L 739.21 502.11 L 739.39 501.51 L 739.58 500.92 L 739.76 500.32 L 739.95 499.72 L 740.13 499.13 L 740.32 498.53 L 740.50 497.94 L 740.68 497.35 L 740.87 496.75 L 741.05 496.16 L 741.23 495.57 L 741.41 494.97 L 741.59 494.38 L 741.78 493.79 L 741.96 493.20 L 742.14 492.61 L 742.32 492.02 L 742.50 491.43 L 742.68 490.84 L 742.86 490.25 L 743.04 489.67 L 743.22 489.08 L 743.40 488.49 L 743.58 487.90 L 743.75 487.31 L 743.93 486.73 L 744.11 486.14 L 744.29 485.56 L 744.46 484.97 L 744.64 484.38 L 744.82 483.80 L 744.99 483.21 L 745.17 482.63 L 745.34 482.04 L 745.52 481.46 L 745.69 480.87 L 745.87 480.29 L 746.04 479.71 L 746.22 479.12 L 746.39 478.54 L 746.56 477.95 L 746.74 477.37 L 746.91 476.79 L 747.08 476.20 L 747.25 475.62 L 747.42 475.03 L 747.59 474.45 L 747.76 473.87 L 747.94 473.28 L 748.10 472.70 L 748.27 472.12 L 748.44 471.53 L 748.61 470.95 L 748.78 470.37 L 748.95 469.78 L 749.12 469.20 L 749.28 468.61 L 749.45 468.03 L 749.62 467.45 L 749.78 466.86 L 749.95 466.28 L 750.11 465.69 L 750.28 465.11 L 750.44 464.52 L 750.61 463.94 L 750.77 463.35 L 750.93 462.76 L 751.10 462.18 L 751.26 461.59 L 751.42 461.01 L 751.58 460.42 L 751.74 459.83 L 751.90 459.24 L 752.06 458.66 L 752.22 458.07 L 752.38 457.48 L 752.54 456.89 L 752.70 456.30 L 752.86 455.71 L 753.02 455.12 L 753.17 454.53 L 753.33 453.94 L 753.49 453.35 L 753.64 452.76 L 753.80 452.17 L 753.95 451.57 L 754.11 450.98 L 754.26 450.39 L 754.42 449.79 L 754.57 449.20 L 754.72 448.60 L 754.88 448.01 L 755.03 447.41 L 755.18 446.82 L 755.33 446.22 L 755.48 445.62 L 755.63 445.02 L 755.78 444.42 L 755.93 443.82 L 756.08 443.22 L 756.23 442.62 L 756.37 442.02 L 756.52 441.42 L 756.67 440.81 L 756.81 440.21 L 756.96 439.60 L 757.10 439.00 L 757.25 438.39 L 757.39 437.78 L 757.54 437.18 L 757.68 436.57 L 757.82 435.96 L 757.96 435.35 L 758.10 434.74 L 758.25 434.13 L 758.39 433.51 L 758.53 432.90 L 758.67 432.28 L 758.80 431.67 L 758.94 431.05 L 759.08 430.44 L 759.22 429.82 L 759.35 429.20 L 759.49 428.58 L 759.63 427.96 L 759.76 427.34 L 759.89 426.72 L 760.02 426.09 L 760.16 425.47 L 760.29 424.85 L 760.42 424.22 L 760.54 423.60 L 760.67 422.97 L 760.80 422.35 L 760.92 421.72 L 761.04 421.10 L 761.17 420.47 L 761.29 419.84 L 761.41 419.22 L 761.52 418.59 L 761.64 417.96 L 761.75 417.34 L 761.86 416.71 L 761.98 416.08 L 762.08 415.45 L 762.19 414.83 L 762.30 414.20 L 762.40 413.57 L 762.50 412.94 L 762.60 412.32 L 762.70 411.69 L 762.79 411.06 L 762.89 410.44 L 762.98 409.81 L 763.07 409.18 L 763.15 408.56 L 763.24 407.93 L 763.32 407.31 L 763.40 406.68 L 763.47 406.06 L 763.55 405.44 L 763.62 404.81 L 763.69 404.19 L 763.75 403.57 L 763.82 402.95 L 763.88 402.33 L 763.93 401.71 L 763.99 401.09 L 764.04 400.47 L 764.09 399.86 L 764.13 399.24 L 764.18 398.62 L 764.21 398.01 L 764.25 397.40 L 764.28 396.78 L 764.31 396.17 L 764.34 395.56 L 764.36 394.95 L 764.38 394.35 L 764.40 393.74 L 764.41 393.13 L 764.42 392.53 L 764.42 391.93 L 764.42 391.33 L 764.42 390.73 L 764.41 390.13 L 764.40 389.53 L 764.39 388.93 L 764.37 388.34 L 764.35 387.75 L 764.32 387.15 L 764.29 386.56 L 764.26 385.98 L 764.22 385.39 L 764.18 384.81 L 764.13 384.22 L 764.08 383.64 L 764.02 383.06 L 763.96 382.49 L 763.90 381.91 L 763.83 381.34 L 763.75 380.76 L 763.68 380.19 L 763.59 379.63 L 763.50 379.06 L 763.41 378.50 L 763.31 377.94 L 763.21 377.38 L 763.10 376.82 L 762.99 376.27 L 762.87 375.71 L 762.75 375.16 L 762.62 374.62 L 762.49 374.07 L 762.35 373.53 L 762.21 372.99 L 762.06 372.45 L 761.90 371.91 L 761.74 371.38 L 761.58 370.85 L 761.41 370.32 L 761.23 369.80 L 761.05 369.27 L 760.86 368.75 L 760.67 368.24 L 760.47 367.72 L 760.26 367.21 L 760.05 366.70 L 759.84 366.20 L 759.61 365.69 L 759.38 365.19 L 759.15 364.70 L 758.91 364.20 L 758.66 363.71 L 758.41 363.23 L 758.15 362.74 L 757.88 362.26 L 757.61 361.78 L 757.33 361.31 L 757.04 360.84 L 756.75 360.37 L 756.45 359.90 L 756.15 359.44 L 755.84 358.99 L 755.52 358.53 L 755.19 358.08 L 754.86 357.63 L 754.52 357.19 L 754.18 356.75 L 753.83 356.31 L 753.47 355.88 L 753.11 355.45 L 752.74 355.02 L 752.36 354.60 L 751.98 354.18 L 751.59 353.76 L 751.20 353.35 L 750.80 352.94 L 750.39 352.53 L 749.98 352.13 L 749.56 351.73 L 749.14 351.34 L 748.71 350.95 L 748.28 350.56 L 747.84 350.17 L 747.39 349.79 L 746.94 349.42 L 746.49 349.04 L 746.03 348.67 L 745.56 348.31 L 745.09 347.94 L 744.62 347.58 L 744.14 347.23 L 743.65 346.88 L 743.16 346.53 L 742.67 346.18 L 742.17 345.84 L 741.66 345.51 L 741.16 345.17 L 740.64 344.84 L 740.13 344.51 L 739.60 344.19 L 739.08 343.87 L 738.55 343.56 L 738.01 343.24 L 737.48 342.94 L 736.93 342.63 L 736.39 342.33 L 735.84 342.03 L 735.28 341.74 L 734.73 341.45 L 734.17 341.16 L 733.60 340.88 L 733.03 340.60 L 732.46 340.33 L 731.88 340.05 L 731.30 339.79 L 730.72 339.52 L 730.14 339.26 L 729.55 339.01 L 728.96 338.75 L 728.36 338.51 L 727.76 338.26 L 727.16 338.02 L 726.56 337.78 L 725.95 337.55 L 725.34 337.32 L 724.73 337.09 L 724.12 336.87 L 723.50 336.65 L 722.88 336.43 L 722.26 336.22 L 721.63 336.02 L 721.01 335.81 L 720.38 335.61 L 719.75 335.42 L 719.11 335.22 L 718.48 335.04 L 717.84 334.85 L 717.20 334.67 L 716.56 334.50 L 715.92 334.32 L 715.27 334.15 L 714.63 333.99 L 713.98 333.83 L 713.33 333.67 L 712.68 333.52 L 712.03 333.37 L 711.37 333.22 L 710.72 333.08 L 710.06 332.94 L 709.41 332.81 L 708.75 332.68 L 708.09 332.55 L 707.43 332.43 L 706.77 332.31 L 706.11 332.20 L 705.44 332.09 L 704.78 331.98 L 704.12 331.88 L 703.45 331.78 L 702.79 331.69 L 702.12 331.60 L 701.46 331.51 L 700.79 331.43 L 700.12 331.35 L 699.46 331.27 L 698.79 331.20 L 698.12 331.14 L 697.46 331.07 L 696.79 331.02 L 696.12 330.96 L 695.46 330.91 L 694.79 330.87 L 694.12 330.82 L 693.46 330.78 L 692.79 330.75 L 692.13 330.72 L 691.46 330.69 L 690.80 330.67 L 690.14 330.65 L 689.48 330.64 L 688.81 330.63 L 688.15 330.62 L 687.50 330.62 L 686.84 330.62 L 686.18 330.63 Z" fill="none" stroke="#00ff66" stroke-width="3" stroke-linejoin="round"/>
</svg>
